<?xml version="1.0" standalone="no"?>
<!DOCTYPE svg PUBLIC "-//W3C//DTD SVG 20010904//EN"
 "http://www.w3.org/TR/2001/REC-SVG-20010904/DTD/svg10.dtd">
<svg version="1.0" xmlns="http://www.w3.org/2000/svg"
 width="1080.000000pt" height="1080.000000pt" viewBox="0 0 1080.000000 1080.000000"
 preserveAspectRatio="xMidYMid meet">
<metadata>
Created by potrace 1.14, written by Peter Selinger 2001-2017
</metadata>
<g transform="translate(0.000000,1080.000000) scale(0.100000,-0.100000)"
fill="#000000" stroke="none">
<path d="M2700 10549 c-7 -24 -21 -75 -32 -114 -11 -38 -26 -92 -33 -120 -30
-112 -28 -109 -76 -124 -24 -8 -46 -18 -47 -23 -2 -4 -8 -5 -13 -2 -6 3 -17 0
-26 -8 -10 -7 -14 -8 -10 -1 4 7 -13 4 -43 -7 -28 -10 -54 -19 -58 -20 -4 0
-25 -5 -47 -11 -22 -6 -44 -12 -50 -13 -29 -6 -55 -18 -55 -26 0 -5 7 -7 15
-4 8 4 22 1 30 -6 8 -7 15 -10 15 -7 0 4 18 0 40 -8 22 -8 41 -14 43 -13 1 0
13 -2 27 -6 14 -4 43 -12 65 -18 22 -5 47 -13 55 -16 8 -3 26 -7 40 -9 13 -2
27 -7 30 -11 3 -4 11 -7 19 -7 13 0 23 -21 35 -75 2 -8 12 -41 21 -74 9 -32
18 -64 20 -70 1 -6 5 -18 8 -26 5 -12 21 -68 33 -112 1 -5 2 -16 3 -25 2 -33
18 2 45 102 15 55 34 120 41 145 7 25 18 64 24 87 7 24 20 47 31 53 11 6 20 8
20 4 0 -3 6 -2 13 3 6 6 22 9 35 8 12 -1 22 2 22 7 0 4 3 7 8 7 4 -1 9 0 12 1
3 1 12 3 20 5 8 2 30 8 48 14 17 5 32 7 32 4 0 -3 6 -1 13 4 6 6 45 18 85 29
41 10 67 21 60 25 -12 6 -155 48 -188 54 -8 2 -16 4 -17 5 -2 2 -6 3 -10 4 -5
2 -28 8 -53 16 -55 16 -59 17 -90 23 -24 4 -32 19 -55 107 -2 8 -11 40 -20 70
-20 70 -21 73 -40 145 -22 79 -31 86 -45 34z"/>
<path d="M3658 9710 c-3 -8 -12 -37 -21 -65 -9 -27 -21 -70 -28 -95 -16 -60
-17 -62 -21 -85 -2 -11 -6 -25 -10 -30 -5 -8 -20 -69 -23 -95 0 -3 -3 -10 -7
-16 -4 -6 -10 -30 -14 -53 -7 -45 -32 -83 -56 -87 -19 -2 -128 -33 -148 -41
-8 -3 -18 -6 -22 -5 -4 1 -26 -5 -49 -13 -23 -8 -54 -18 -68 -21 -30 -6 -40
-9 -61 -17 -14 -5 -61 -17 -88 -23 -60 -12 -50 -29 26 -44 31 -7 62 -15 67
-18 6 -4 15 -7 20 -8 6 -1 37 -10 70 -19 33 -9 87 -24 120 -33 33 -8 62 -18
65 -21 3 -3 14 -7 25 -9 48 -7 85 -25 87 -40 2 -23 4 -35 11 -52 9 -24 20 -74
19 -82 -1 -5 2 -8 6 -8 7 0 12 -24 15 -67 0 -7 3 -13 7 -13 4 0 7 -6 8 -12 1
-16 5 -33 33 -128 12 -41 22 -81 22 -87 0 -7 4 -13 8 -13 5 0 6 -6 3 -14 -3
-8 -1 -17 5 -20 8 -6 27 49 23 67 -1 4 3 7 9 7 5 0 8 4 5 8 -3 5 2 28 11 53
13 38 19 61 27 104 1 6 5 15 9 22 4 6 8 23 9 37 1 14 6 26 11 26 4 0 6 3 4 8
-2 4 8 47 22 96 27 95 26 93 101 110 37 9 137 38 160 47 14 5 34 11 45 14 11
2 57 15 103 28 45 14 82 22 82 20 0 -3 7 1 17 8 9 8 19 13 22 11 3 -2 7 1 9 7
2 6 -4 11 -13 11 -9 0 -71 16 -138 35 -67 20 -129 37 -137 39 -8 2 -22 5 -30
9 -19 7 -135 37 -162 42 -25 5 -38 17 -42 36 -1 8 -8 34 -15 59 -7 25 -15 56
-18 69 -2 14 -7 29 -11 35 -3 6 -8 17 -9 24 -6 24 -9 38 -27 97 -10 33 -20 67
-22 75 -14 64 -43 142 -46 130z"/>
<path d="M1791 9297 c-7 -31 -12 -58 -11 -59 1 -2 -5 -21 -13 -43 -13 -35 -27
-84 -28 -100 0 -3 -6 -23 -14 -45 -8 -22 -14 -42 -15 -45 0 -3 0 -6 -1 -7 0
-2 -2 -10 -4 -18 -2 -8 -19 -71 -38 -139 -38 -141 -29 -131 -154 -163 -29 -7
-53 -16 -53 -21 0 -4 -5 -5 -10 -2 -6 4 -17 1 -25 -5 -8 -7 -15 -10 -15 -7 0
3 -15 1 -32 -4 -18 -6 -40 -12 -48 -14 -8 -2 -17 -4 -20 -6 -3 -1 -9 -3 -15
-4 -5 -2 -12 -4 -15 -5 -10 -3 -45 -11 -57 -12 -7 -1 -13 -5 -13 -9 0 -4 -8
-8 -17 -8 -35 -1 -83 -13 -83 -22 0 -5 -3 -8 -7 -7 -18 4 -93 -15 -93 -23 0
-6 5 -7 10 -4 6 3 10 2 10 -2 0 -5 28 -15 63 -22 34 -8 74 -20 88 -27 15 -7
29 -11 31 -9 3 3 31 -3 64 -14 32 -10 73 -22 89 -26 17 -5 36 -10 43 -12 6 -1
18 -4 25 -6 6 -1 17 -5 22 -8 6 -3 37 -12 70 -19 78 -17 118 -37 111 -56 -3
-8 -1 -14 5 -14 6 0 9 -7 6 -15 -4 -8 -2 -17 3 -20 6 -4 10 -17 10 -30 0 -13
4 -26 10 -30 5 -3 7 -12 3 -20 -3 -8 1 -15 8 -15 7 0 10 -2 7 -5 -5 -6 15 -91
45 -187 8 -27 13 -48 11 -48 -2 0 3 -17 11 -37 8 -21 16 -47 18 -58 2 -11 7
-27 11 -36 4 -9 8 -29 10 -45 3 -28 25 -47 27 -22 0 7 3 22 5 33 3 11 6 26 6
33 1 6 4 12 8 12 3 0 6 8 7 18 1 15 7 41 17 77 2 6 6 17 9 25 5 13 25 81 33
115 1 6 10 37 19 70 9 33 17 65 18 70 2 6 6 16 10 23 5 6 6 16 2 21 -3 5 -1
12 4 15 5 4 12 24 16 46 6 38 34 68 49 53 3 -3 6 -1 6 5 0 7 6 12 14 12 7 0
61 14 120 31 59 17 115 32 124 34 9 2 28 8 42 13 14 5 27 10 30 10 13 1 66 14
80 20 8 3 20 7 25 8 6 1 13 3 18 4 4 1 12 4 17 5 6 1 12 4 15 5 3 1 10 4 15 5
6 1 11 3 13 4 1 2 13 4 27 7 50 9 56 17 20 26 -55 14 -65 16 -67 18 -2 2 -6 3
-10 4 -5 1 -12 4 -18 7 -5 3 -17 5 -25 4 -8 0 -17 2 -20 6 -3 4 -18 8 -35 10
-16 2 -34 6 -40 10 -9 6 -50 18 -82 25 -19 3 -166 45 -183 52 -19 7 -19 7 -60
16 -64 14 -72 18 -66 32 3 7 1 16 -5 19 -5 4 -7 11 -4 16 4 5 2 9 -3 9 -6 0
-9 6 -9 13 2 11 -8 45 -48 182 -9 28 -17 59 -19 70 -3 11 -11 39 -20 63 -9 24
-15 46 -14 50 1 4 -7 34 -17 67 -10 33 -20 65 -21 70 -19 71 -19 71 -33 12z"/>
<path d="M6944 8041 c-2 -3 -21 -6 -42 -8 -20 -1 -50 -5 -67 -8 -16 -3 -48 -8
-70 -10 -22 -3 -51 -9 -65 -12 -14 -3 -32 -8 -40 -10 -8 -2 -24 -5 -35 -6 -12
-2 -25 -6 -30 -9 -6 -3 -18 -4 -27 -3 -10 2 -18 -1 -18 -6 0 -5 -3 -8 -7 -7
-5 1 -43 -6 -85 -16 -43 -9 -80 -17 -83 -17 -2 0 -23 -6 -45 -14 -22 -8 -42
-14 -45 -15 -3 0 -6 0 -7 -1 -2 0 -12 -2 -23 -4 -29 -5 -196 -42 -225 -50 -14
-3 -63 -12 -109 -20 -46 -8 -91 -17 -100 -19 -9 -3 -47 -8 -85 -11 -37 -3 -82
-9 -100 -11 -17 -3 -132 -7 -256 -9 -252 -3 -369 7 -602 50 -13 3 -77 16 -143
30 -599 127 -659 136 -898 139 -156 2 -252 -7 -382 -35 -49 -11 -98 -22 -107
-24 -9 -2 -26 -9 -37 -15 -12 -6 -21 -7 -21 -3 0 4 -5 2 -12 -5 -7 -7 -18 -12
-24 -12 -7 0 -43 -14 -81 -32 -37 -18 -71 -31 -75 -30 -5 1 -8 -3 -8 -8 0 -6
-6 -10 -13 -10 -14 0 -173 -106 -214 -143 -70 -62 -186 -189 -184 -201 1 -3
-7 -14 -16 -24 -33 -35 -53 -62 -45 -62 4 0 -1 -7 -11 -14 -10 -8 -18 -16 -18
-18 2 -13 -13 -48 -20 -48 -5 0 -8 -3 -7 -7 1 -5 -4 -19 -9 -33 -25 -58 -36
-85 -38 -92 -2 -5 -4 -10 -5 -13 -1 -3 -4 -9 -5 -15 -1 -5 -3 -11 -5 -12 -1
-2 -3 -10 -5 -18 -2 -8 -7 -26 -10 -40 -12 -51 -17 -75 -18 -87 0 -7 -3 -13
-6 -13 -3 0 -6 -27 -6 -61 0 -33 -2 -62 -5 -64 -7 -4 -3 -361 4 -435 3 -30 8
-82 12 -115 3 -33 7 -80 8 -105 0 -25 4 -47 7 -50 4 -3 9 -27 12 -55 9 -77 16
-118 49 -270 16 -77 31 -149 32 -160 2 -11 6 -27 10 -35 3 -9 8 -29 9 -45 1
-17 5 -32 8 -35 4 -3 9 -21 12 -40 3 -19 12 -59 21 -88 8 -29 15 -55 15 -57 1
-3 1 -6 2 -7 0 -2 2 -10 4 -18 2 -8 18 -67 35 -130 17 -63 33 -126 36 -140 2
-14 7 -32 11 -40 7 -16 6 -16 21 -75 5 -22 24 -92 42 -155 17 -63 33 -122 35
-130 2 -8 22 -91 44 -185 51 -215 59 -252 66 -295 4 -19 10 -53 15 -75 4 -22
11 -60 14 -85 3 -25 8 -55 10 -67 3 -12 7 -48 11 -80 3 -32 8 -69 10 -83 8
-51 24 -187 30 -250 17 -200 19 -233 31 -485 9 -189 12 -260 13 -260 1 0 13
-247 14 -287 0 -16 3 -28 6 -28 3 0 7 -26 7 -58 2 -100 7 -162 13 -162 3 0 7
-26 8 -58 2 -56 9 -137 13 -137 1 0 3 -16 5 -35 2 -19 6 -55 9 -80 3 -25 8
-65 11 -90 3 -25 8 -63 12 -85 3 -22 7 -51 8 -65 1 -14 5 -41 9 -60 4 -19 9
-44 11 -55 2 -11 4 -20 5 -20 1 0 3 -16 5 -35 6 -45 13 -85 15 -85 1 0 3 -15
5 -33 2 -19 7 -41 11 -50 4 -10 8 -28 10 -42 4 -25 11 -61 14 -70 1 -3 2 -9 1
-14 -1 -5 3 -21 8 -35 6 -14 13 -37 15 -51 3 -14 5 -25 6 -25 1 0 3 -11 6 -25
2 -14 8 -36 13 -50 9 -25 23 -83 22 -88 -1 -1 6 -16 14 -32 9 -17 13 -30 10
-30 -3 0 2 -11 11 -25 9 -14 13 -25 9 -25 -4 0 -2 -7 5 -15 7 -8 9 -15 5 -15
-4 0 -2 -7 5 -15 7 -8 9 -15 6 -15 -4 0 -1 -12 7 -27 8 -16 19 -39 25 -53 10
-26 53 -112 95 -192 14 -26 28 -44 31 -41 3 4 6 -2 6 -13 0 -11 8 -27 18 -35
9 -9 24 -26 32 -38 27 -41 93 -103 150 -141 78 -54 149 -75 245 -74 93 0 123
6 166 31 30 18 119 98 119 108 0 3 15 30 35 60 19 30 42 72 51 92 9 21 21 49
27 63 5 14 11 28 12 33 2 4 4 9 5 12 1 3 4 10 5 15 1 6 4 13 5 18 2 4 4 12 4
17 1 6 8 20 14 33 7 12 10 27 7 32 -3 6 -1 10 6 10 7 0 10 2 7 6 -3 3 1 26 9
52 7 26 16 63 19 82 3 19 9 39 12 45 3 5 7 16 8 25 1 8 5 26 8 40 4 14 9 41
12 60 3 19 8 38 11 43 2 4 6 24 8 45 3 20 7 48 10 62 11 55 18 95 29 170 2 14
5 25 6 25 1 0 4 16 5 35 4 37 14 125 18 150 1 8 5 20 8 25 3 6 5 27 4 48 0 20
2 37 5 37 3 0 6 15 7 33 1 17 5 50 7 72 3 22 6 55 7 73 1 17 5 32 8 32 3 0 7
17 8 38 2 40 10 107 12 107 1 0 4 25 6 55 3 30 7 66 10 80 4 14 8 43 11 65 2
22 7 55 9 73 3 17 7 49 10 70 3 20 10 60 15 87 5 28 11 66 14 85 3 19 10 50
15 69 6 19 8 37 6 42 -3 4 -1 10 5 14 5 3 10 16 10 29 0 12 3 26 7 30 4 3 8
13 9 21 4 27 36 120 45 130 5 5 9 15 9 21 0 19 71 168 81 172 5 2 9 9 9 16 0
17 90 144 129 183 187 188 430 229 643 110 150 -84 253 -218 366 -477 33 -74
83 -241 85 -277 0 -7 4 -13 9 -13 5 0 7 -3 4 -8 -4 -7 4 -59 19 -122 4 -14 8
-36 10 -50 1 -14 5 -43 9 -65 3 -22 8 -59 11 -83 3 -24 7 -53 10 -65 2 -12 7
-42 10 -67 2 -25 7 -56 10 -70 2 -14 7 -47 10 -75 4 -27 8 -61 10 -75 2 -14 6
-45 9 -70 7 -66 17 -131 22 -160 10 -51 16 -96 15 -119 -1 -12 2 -28 6 -34 7
-11 11 -42 15 -99 1 -16 4 -28 7 -28 3 0 7 -17 8 -38 1 -20 4 -50 7 -67 3 -16
8 -52 11 -79 3 -27 11 -56 17 -64 11 -13 10 -14 0 -8 -11 7 -12 4 -3 -12 6
-12 11 -25 10 -29 -1 -4 -1 -10 1 -13 1 -5 5 -25 14 -80 3 -14 14 -63 26 -110
29 -114 31 -123 32 -137 1 -7 5 -13 10 -13 5 0 7 -4 4 -9 -6 -8 22 -93 64
-202 34 -84 52 -121 78 -156 13 -18 22 -33 18 -33 -6 0 15 -28 56 -72 38 -42
113 -87 148 -90 17 -1 30 -6 30 -10 0 -8 119 -4 162 6 15 3 47 15 72 26 26 11
49 19 53 19 3 -1 10 6 15 15 5 9 15 16 22 16 8 0 16 7 20 15 3 8 12 15 21 15
8 0 15 3 15 8 0 4 20 27 45 52 24 25 44 50 45 56 0 7 7 14 15 18 8 3 15 12 15
21 0 8 5 15 11 15 5 0 8 4 5 9 -3 5 1 11 9 15 8 3 15 12 15 19 0 8 7 20 15 27
9 7 13 15 10 18 -3 3 2 13 11 23 8 9 17 25 18 34 1 9 9 24 17 34 8 9 15 22 16
27 1 5 12 32 24 59 12 28 23 53 24 58 2 4 3 8 4 10 2 1 4 13 7 26 2 13 11 38
19 55 17 38 40 116 38 134 0 6 4 12 9 12 6 0 8 7 5 15 -4 8 -2 17 2 19 8 5 26
83 22 99 0 4 3 7 7 7 4 0 8 8 8 18 1 15 7 48 19 102 2 8 4 15 5 15 1 0 3 11 4
25 0 14 4 30 7 35 4 6 10 30 13 55 7 46 13 81 16 90 1 3 2 9 1 13 -1 4 3 17 9
27 8 14 8 20 0 20 -6 0 -8 5 -3 13 4 6 9 19 10 27 5 23 13 81 18 120 6 49 13
95 15 95 1 0 3 14 5 30 4 44 16 165 20 200 2 17 4 30 5 30 1 0 3 16 5 35 2 19
6 55 8 80 5 42 11 113 22 240 9 107 15 206 20 325 3 66 7 163 10 215 3 52 8
147 11 210 8 178 25 388 39 490 2 19 7 60 10 90 24 224 85 554 146 794 12 45
22 88 24 97 2 8 10 38 18 65 8 27 14 51 14 54 0 3 5 21 11 40 6 19 13 46 14
60 2 14 7 30 10 36 4 6 9 21 12 35 5 26 50 201 91 349 14 52 28 106 31 120 3
14 10 43 16 65 5 22 12 51 15 65 2 14 10 50 18 80 8 30 16 66 19 80 3 14 7 36
10 50 3 14 8 36 11 50 3 14 7 36 10 50 3 14 7 36 9 50 3 14 8 41 10 60 3 19 8
46 11 60 3 14 8 41 10 60 3 19 8 55 12 80 3 25 7 64 7 87 1 24 4 43 8 43 4 0
6 8 6 18 -1 35 13 236 17 241 3 2 0 10 -6 17 -7 8 -7 14 1 19 8 5 7 11 -2 23
-7 9 -8 13 -2 9 8 -4 10 19 7 81 -2 48 -4 120 -6 159 -1 40 -5 73 -8 73 -4 0
-6 12 -7 28 0 15 -1 29 -2 32 -1 3 -3 14 -5 25 -11 64 -18 92 -26 108 -5 9 -7
17 -3 17 3 0 0 8 -7 17 -12 15 -12 16 1 8 12 -7 11 -3 -2 18 -10 14 -18 32
-19 39 0 7 -11 35 -24 63 -13 27 -21 53 -19 57 3 5 1 8 -3 8 -5 0 -20 22 -34
50 -13 27 -27 50 -31 50 -5 0 -8 6 -8 14 0 8 -4 16 -9 18 -5 2 -11 9 -13 16
-3 13 -32 51 -75 98 -13 14 -23 27 -23 29 0 15 -178 174 -209 187 -9 3 -26 16
-38 27 -13 12 -25 21 -28 21 -3 0 -32 13 -64 29 -32 17 -61 27 -65 24 -3 -4
-6 -1 -6 5 0 7 -9 12 -20 12 -11 0 -20 5 -20 10 0 6 -3 9 -7 8 -9 -2 -94 22
-108 30 -5 3 -21 7 -35 8 -14 2 -56 9 -95 15 -38 7 -82 12 -97 12 -16 1 -28 3
-28 7 0 3 -9 6 -20 6 -11 0 -20 -4 -20 -9 0 -4 -6 -5 -12 0 -13 8 -286 11
-294 4z m-766 -1287 c12 -3 22 -10 22 -15 0 -5 5 -9 12 -9 15 0 89 -81 83 -91
-3 -4 2 -10 11 -13 8 -3 12 -11 9 -16 -4 -6 -2 -16 3 -23 22 -27 -5 -197 -32
-197 -5 0 -7 -3 -3 -6 9 -9 -59 -70 -101 -90 -58 -28 -149 -28 -208 1 -66 31
-96 60 -123 120 -32 68 -31 157 1 220 15 27 83 107 90 104 2 0 14 4 28 9 14 5
36 14 49 19 23 9 111 2 159 -13z m-1372 -8 c27 -13 67 -43 87 -66 33 -39 39
-52 36 -76 0 -4 5 -10 11 -14 18 -11 16 -98 -4 -156 -42 -128 -187 -194 -323
-148 -53 18 -102 52 -102 72 -1 6 -5 12 -9 12 -11 0 -40 65 -46 100 -2 14 -5
30 -6 35 -1 6 -2 12 0 15 1 3 3 22 5 42 1 21 15 58 29 83 66 112 205 156 322
101z m-371 -1320 c13 -9 44 -42 67 -74 41 -55 195 -212 208 -212 4 0 20 -11
36 -25 48 -41 266 -143 329 -154 6 -1 26 -6 45 -11 102 -26 256 -36 370 -25
84 8 112 12 185 31 33 9 67 17 76 19 23 5 139 54 184 78 134 73 259 186 363
329 15 20 39 43 53 52 32 19 106 29 114 16 3 -6 13 -10 22 -10 19 0 72 -57 75
-79 7 -80 2 -98 -50 -176 -69 -103 -165 -202 -275 -283 -176 -129 -352 -206
-562 -247 -22 -5 -47 -10 -55 -11 -74 -15 -272 -21 -375 -11 -76 8 -149 19
-158 24 -4 2 -20 7 -35 9 -150 26 -365 127 -522 244 -82 62 -232 216 -257 265
-9 16 -22 35 -29 42 -18 18 -32 74 -29 112 3 32 28 77 54 98 42 33 115 32 166
-1z"/>
</g>
</svg>
